<svg xmlns="http://www.w3.org/2000/svg" width="808.27" height="727.902" viewBox="0 0 808.27 727.902">
  <g id="undraw_urban_design_kpu8" transform="translate(-112.904)">
    <ellipse id="Ellipse_47" data-name="Ellipse 47" cx="53.417" cy="55.042" rx="53.417" ry="55.042" transform="translate(773.886 263.154)" fill="#05dbf2"/>
    <path id="Path_201" data-name="Path 201" d="M402.255,466.567c0,108.364,62.52,146.2,139.642,146.2s139.643-37.837,139.643-146.2S541.9,220.346,541.9,220.346,402.255,358.2,402.255,466.567Z" transform="translate(87.249 -86.049)" fill="#f280b6"/>
    <path id="Path_202" data-name="Path 202" d="M404.608,510.143l-1.43-90.692-59.519-112.2,59.295,97.972-.643-40.779-41.02-81.174,40.85,70.383h0l-1.157-73.342-43.925-64.625L400.8,268.78,400.08,134.3l4.54,178.031-.374-7.344,44.66-70.437-43.944,84.535,4.161,81.911.124-2.174,51.483-74.125L409.4,406.5l.521,10.244.093.154-.043.841,10.557,207.814H406.427l-1.693-107.34-51.2-81.6Z" transform="translate(228.493)" fill="#fddf33"/>
    <path id="Path_203" data-name="Path 203" d="M541.088,568.917c0,108.364,62.52,146.2,139.642,146.2s139.642-37.836,139.642-146.2S680.73,322.7,680.73,322.7,541.088,460.553,541.088,568.917Z" transform="translate(-192.68 -86.049)" fill="#fddf33"/>
    <path id="Path_204" data-name="Path 204" d="M543.44,612.493l-1.43-90.691L482.491,409.6l59.294,97.971-.643-40.778-41.021-81.174,40.851,70.382h0l-1.157-73.343-43.925-64.624,43.744,53.092-.723-134.484,4.541,178.032-.374-7.344,44.66-70.437-43.944,84.535,4.161,81.91.124-2.174,51.483-74.124-51.328,81.8.52,10.244.094.154-.043.841L559.364,727.9H545.259l-1.692-107.34-51.2-81.6Z" transform="translate(-49.89)" fill="#f2f2f2"/>
    <path id="Path_205" data-name="Path 205" d="M270.517,568.917c0,108.364,62.52,146.2,139.642,146.2S549.8,677.282,549.8,568.917,410.159,322.7,410.159,322.7,270.517,460.553,270.517,568.917Z" transform="translate(353.709 -86.049)" fill="#fddf33"/>
    <path id="Path_206" data-name="Path 206" d="M272.87,612.493l-1.43-90.691L211.92,409.6l59.295,97.971-.642-40.778-41.021-81.174,40.85,70.382h0l-1.156-73.343-43.925-64.624,43.744,53.092-.723-134.484,4.54,178.032-.373-7.344L317.168,336.9l-43.943,84.535,4.161,81.91.123-2.174,51.484-74.124-51.328,81.8.52,10.244.093.154-.043.841L288.794,727.9H274.689L273,620.562l-51.2-81.6Z" transform="translate(496.086)" fill="#f2f2f2"/>
    <path id="Path_207" data-name="Path 207" d="M541,813.035c137.724,0,256.268-100.245,283.136-239.429s-45.422-278.542-172.661-332.85-273.99-8.437-350.505,109.557-61.484,275.251,35.9,375.6C390.893,781.878,464.4,813.25,541,813.035Zm0-592.65c157.965,0,286.478,132.421,286.478,295.189S698.967,810.765,541,810.765,254.525,678.343,254.525,515.575,383.038,220.386,541,220.386Z" transform="translate(91.459 -86.049)" fill="#05dbf2"/>
    <path id="Path_208" data-name="Path 208" d="M167.207,599.234V725.905H639.271V599.234L403.24,472.562l-.492.263Z" transform="translate(229.202)" fill="#f2f2f2"/>
    <path id="Path_209" data-name="Path 209" d="M410.923,599.234V725.905H646.464V472.825Z" transform="translate(-27.082)" opacity="0.1"/>
    <path id="Path_210" data-name="Path 210" d="M371.4,550.085l17.7,6.887V529.818l-17.7-7.995Z" transform="translate(273.397)" fill="#3f3d56"/>
    <path id="Path_211" data-name="Path 211" d="M181.9,626.088l5.9,2.3V611.9l-5.9-2.688Z" transform="translate(666.411)" fill="#3f3d56"/>
    <path id="Path_212" data-name="Path 212" d="M202.168,618.994l6.885,2.659V603.794l-6.885-3.114Z" transform="translate(625.491)" fill="#3f3d56"/>
    <path id="Path_213" data-name="Path 213" d="M224.462,609.874l7.868,3.049V593.66l-7.868-3.568Z" transform="translate(580.578)" fill="#3f3d56"/>
    <path id="Path_214" data-name="Path 214" d="M250.81,598.727l9.835,3.825V582.513l-9.835-4.446Z" transform="translate(526.692)" fill="#3f3d56"/>
    <path id="Path_215" data-name="Path 215" d="M283.238,585.553l11.8,4.6V568.326l-11.8-5.334Z" transform="translate(455.724)" fill="#3f3d56"/>
    <path id="Path_216" data-name="Path 216" d="M322.76,570.352l13.768,5.345V551.1l-13.768-6.219Z" transform="translate(374.679)" fill="#3f3d56"/>
    <path id="Path_217" data-name="Path 217" d="M181.9,659.529l5.9,1.529V644.329l-5.9-1.923Z" transform="translate(666.411)" fill="#3f3d56"/>
    <path id="Path_218" data-name="Path 218" d="M202.168,654.463l6.885,1.776v-17.99l-6.885-2.236Z" transform="translate(625.491)" fill="#3f3d56"/>
    <path id="Path_219" data-name="Path 219" d="M224.462,648.382l7.868,2.037V631.155l-7.868-2.557Z" transform="translate(580.578)" fill="#3f3d56"/>
    <path id="Path_220" data-name="Path 220" d="M250.81,641.289l9.835,2.545V623.048l-9.835-3.189Z" transform="translate(526.692)" fill="#3f3d56"/>
    <path id="Path_221" data-name="Path 221" d="M283.238,632.168l11.8,3.069V612.914l-11.8-3.825Z" transform="translate(455.724)" fill="#3f3d56"/>
    <path id="Path_222" data-name="Path 222" d="M321.746,622.035l14.752,3.823v-25.1l-14.752-4.783Z" transform="translate(375.716)" fill="#3f3d56"/>
    <path id="Path_223" data-name="Path 223" d="M371.4,608.861l17.7,4.585V585.553l-17.7-5.722Z" transform="translate(273.397)" fill="#3f3d56"/>
    <path id="Path_224" data-name="Path 224" d="M371.4,666.623l17.7,2.322V641.289l-17.7-3.45Z" transform="translate(273.397)" fill="#3f3d56"/>
    <path id="Path_225" data-name="Path 225" d="M181.9,691.957l5.9.782V676.757l-5.9-1.159Z" transform="translate(666.411)" fill="#3f3d56"/>
    <path id="Path_226" data-name="Path 226" d="M202.168,689.931l6.885.894V673.717l-6.885-1.331Z" transform="translate(625.491)" fill="#3f3d56"/>
    <path id="Path_227" data-name="Path 227" d="M224.462,686.89l7.868,1.026V668.65l-7.868-1.545Z" transform="translate(580.578)" fill="#3f3d56"/>
    <path id="Path_228" data-name="Path 228" d="M250.81,682.837l9.835,1.3V663.583l-9.835-1.933Z" transform="translate(526.692)" fill="#3f3d56"/>
    <path id="Path_229" data-name="Path 229" d="M283.238,678.783l11.8,1.543V657.5l-11.8-2.316Z" transform="translate(455.724)" fill="#3f3d56"/>
    <path id="Path_230" data-name="Path 230" d="M321.746,673.717l14.752,1.921V650.409l-14.752-2.885Z" transform="translate(375.716)" fill="#3f3d56"/>
    <path id="Path_231" data-name="Path 231" d="M639.767,626.088l-5.9,2.3V611.9l5.9-2.688Z" transform="translate(-239.669)" fill="#3f3d56"/>
    <path id="Path_232" data-name="Path 232" d="M619.469,618.994l-6.885,2.659V603.794l6.885-3.114Z" transform="translate(-198.104)" fill="#3f3d56"/>
    <path id="Path_233" data-name="Path 233" d="M597.145,609.874l-7.868,3.049V593.66l7.868-3.568Z" transform="translate(-152.485)" fill="#3f3d56"/>
    <path id="Path_234" data-name="Path 234" d="M570.737,598.727l-9.835,3.825V582.513l9.835-4.446Z" transform="translate(-97.728)" fill="#3f3d56"/>
    <path id="Path_235" data-name="Path 235" d="M538.249,585.553l-11.8,4.6V568.326l11.8-5.334Z" transform="translate(-30.805)" fill="#3f3d56"/>
    <path id="Path_236" data-name="Path 236" d="M498.668,570.352,484.9,575.7V551.1l13.769-6.219Z" transform="translate(50.315)" fill="#3f3d56"/>
    <path id="Path_237" data-name="Path 237" d="M639.767,659.529l-5.9,1.529V644.329l5.9-1.923Z" transform="translate(-239.669)" fill="#3f3d56"/>
    <path id="Path_238" data-name="Path 238" d="M619.469,654.463l-6.885,1.776v-17.99l6.885-2.236Z" transform="translate(-198.104)" fill="#3f3d56"/>
    <path id="Path_239" data-name="Path 239" d="M597.145,648.382l-7.868,2.037V631.155l7.868-2.557Z" transform="translate(-152.485)" fill="#3f3d56"/>
    <path id="Path_240" data-name="Path 240" d="M570.737,641.289l-9.835,2.545V623.048l9.835-3.189Z" transform="translate(-97.728)" fill="#3f3d56"/>
    <path id="Path_241" data-name="Path 241" d="M538.249,632.168l-11.8,3.069V612.914l11.8-3.825Z" transform="translate(-30.805)" fill="#3f3d56"/>
    <path id="Path_242" data-name="Path 242" d="M499.651,622.035,484.9,625.858v-25.1l14.752-4.783Z" transform="translate(49.318)" fill="#3f3d56"/>
    <path id="Path_243" data-name="Path 243" d="M449.907,608.861l-17.7,4.585V585.553l17.7-5.722Z" transform="translate(151.75)" fill="#3f3d56"/>
    <path id="Path_244" data-name="Path 244" d="M449.907,666.623l-17.7,2.322V641.289l17.7-3.45Z" transform="translate(151.75)" fill="#3f3d56"/>
    <path id="Path_245" data-name="Path 245" d="M639.767,691.957l-5.9.782V676.757l5.9-1.159Z" transform="translate(-239.669)" fill="#3f3d56"/>
    <path id="Path_246" data-name="Path 246" d="M619.469,689.931l-6.885.894V673.717l6.885-1.331Z" transform="translate(-198.104)" fill="#3f3d56"/>
    <path id="Path_247" data-name="Path 247" d="M597.145,686.89l-7.868,1.026V668.65l7.868-1.545Z" transform="translate(-152.485)" fill="#3f3d56"/>
    <path id="Path_248" data-name="Path 248" d="M570.737,682.837l-9.835,1.3V663.583l9.835-1.933Z" transform="translate(-97.728)" fill="#3f3d56"/>
    <path id="Path_249" data-name="Path 249" d="M538.249,678.783l-11.8,1.543V657.5l11.8-2.316Z" transform="translate(-30.805)" fill="#3f3d56"/>
    <path id="Path_250" data-name="Path 250" d="M499.651,673.717,484.9,675.638V650.409l14.752-2.885Z" transform="translate(49.318)" fill="#3f3d56"/>
    <path id="Path_251" data-name="Path 251" d="M431.191,557.179l17.7-6.879V521.711l-17.7,8Z" transform="translate(153.778)" fill="#3f3d56"/>
    <rect id="Rectangle_72" data-name="Rectangle 72" width="1.443" height="23.789" transform="translate(413.388 703.349)" fill="#2f2e41"/>
    <rect id="Rectangle_73" data-name="Rectangle 73" width="1.022" height="16.857" transform="translate(395.865 709.825)" fill="#2f2e41"/>
    <rect id="Rectangle_74" data-name="Rectangle 74" width="0.899" height="14.815" transform="translate(380.296 711.883)" fill="#2f2e41"/>
    <path id="Path_252" data-name="Path 252" d="M537.595,695.808v30.6l19.177-.03,19.178-.031V691.957l-19.178,1.926Z" transform="translate(-80.11)" fill="#3f3d56"/>
    <path id="Path_253" data-name="Path 253" d="M283.085,726.412l-38.355-.063V691.957l38.355,3.847Z" transform="translate(506.063)" fill="#3f3d56"/>
    <path id="Path_254" data-name="Path 254" d="M557.356,695.808v30.6l19.177-.03v-32.5Z" transform="translate(-100.139)" opacity="0.1"/>
    <rect id="Rectangle_76" data-name="Rectangle 76" width="1.967" height="28.375" transform="translate(625.727 698.544)" fill="#2f2e41"/>
    <path id="Path_255" data-name="Path 255" d="M535.674,774.492c0,9.943,5.154,18.24,11.351,18.525,6.024.277,10.786-7.163,10.786-16.612s-11.77-35.387-11.77-35.387S535.674,764.549,535.674,774.492Z" transform="translate(79.763 -86.049)" fill="#f280b6"/>
    <rect id="Rectangle_77" data-name="Rectangle 77" width="1.173" height="16.925" transform="translate(865.806 708.638)" fill="#2f2e41"/>
    <path id="Path_256" data-name="Path 256" d="M302.134,787.661c0,5.931,3.074,10.88,6.77,11.05,3.593.165,6.434-4.273,6.434-9.908s-7.02-21.107-7.02-21.107S302.134,781.731,302.134,787.661Z" transform="translate(557.489 -86.049)" fill="#f280b6"/>
    <path id="Path_257" data-name="Path 257" d="M750.259,790.337c0,5.64,3.45,10.046,7.936,9.829,4.764-.23,8.848-5.525,8.848-11.814s-8.848-22-8.848-22S750.259,784.7,750.259,790.337Z" transform="translate(-344.133 -86.049)" fill="#f280b6"/>
    <path id="Path_258" data-name="Path 258" d="M770.649,796.539c0,4,2.444,7.119,5.624,6.965,3.376-.163,6.27-3.915,6.27-8.371s-6.27-15.589-6.27-15.589S770.649,792.542,770.649,796.539Z" transform="translate(-379.936 -86.049)" fill="#f280b6"/>
    <path id="Path_259" data-name="Path 259" d="M787.063,798.517c0,3.513,2.148,6.256,4.943,6.121,2.967-.143,5.51-3.441,5.51-7.357s-5.51-13.7-5.51-13.7S787.063,795,787.063,798.517Z" transform="translate(-411.301 -86.049)" fill="#f280b6"/>
    <path id="Path_260" data-name="Path 260" d="M767.767,249.3s9.573,29.591,4.254,36.167S803.93,265.74,803.93,265.74l-20.209-24.111Z" transform="translate(-398.942 -86.049)" fill="#a0616a"/>
    <ellipse id="Ellipse_48" data-name="Ellipse 48" cx="47.755" cy="49.207" rx="47.755" ry="49.207" transform="translate(342.685 64.789)" fill="#2f2e41"/>
    <path id="Path_261" data-name="Path 261" d="M794.942,496.424l24.463,19.728,13.828-23.016L808.77,475.6Z" transform="translate(-597.82)" fill="#a0616a"/>
    <path id="Path_262" data-name="Path 262" d="M947.075,730.977l-6.382,31.783-18.082,25.207s-48.927,15.344-15.954,23.015,40.418-5.48,40.418-5.48l23.4-20.824v28.495h14.891l3.191-40.551s2.127-12.056-7.445-25.207l-2.127-19.727Z" transform="translate(-715.386 -86.049)" fill="#2f2e41"/>
    <path id="Path_263" data-name="Path 263" d="M886.507,337.525,878,387.939s-90.408-9.864-96.79,8.768-8.509,24.111-8.509,24.111l18.082,6.576,8.509-16.44a19.663,19.663,0,0,1,15.954,1.1c8.509,4.384,82.963,15.344,88.281,1.1s20.209-66.854,20.209-66.854L901.4,327.661Z" transform="translate(-526.603 -86.049)" fill="#a0616a"/>
    <path id="Path_264" data-name="Path 264" d="M886.507,337.525,878,387.939s-90.408-9.864-96.79,8.768-8.509,24.111-8.509,24.111l18.082,6.576,8.509-16.44a19.663,19.663,0,0,1,15.954,1.1c8.509,4.384,82.963,15.344,88.281,1.1s20.209-66.854,20.209-66.854L901.4,327.661Z" transform="translate(-526.603 -86.049)" opacity="0.1"/>
    <path id="Path_265" data-name="Path 265" d="M942.34,483.288l-7.445,26.3L915.749,610.42s-2.127,74.526-5.318,83.293-3.191,9.864,0,13.152,9.573,14.248,0,20.823-43.608,14.248-44.672,6.576-1.064-19.727,0-25.207-3.191-90.965-3.191-90.965l12.763-130.42,43.609-20.823Z" transform="translate(-637.26 -86.049)" fill="#2f2e41"/>
    <path id="Path_266" data-name="Path 266" d="M942.34,483.288l-7.445,26.3L915.749,610.42s-2.127,74.526-5.318,83.293-3.191,9.864,0,13.152,9.573,14.248,0,20.823-43.608,14.248-44.672,6.576-1.064-19.727,0-25.207-3.191-90.965-3.191-90.965l12.763-130.42,43.609-20.823Z" transform="translate(-637.26 -86.049)" opacity="0.1"/>
    <path id="Path_267" data-name="Path 267" d="M982.705,380.268l-23.4,46.031S825.289,487.673,836.989,512.88s76.581,72.334,76.581,72.334,3.191,18.631,12.763,13.152,32.972-33.975,30.845-37.263-9.573-10.96-12.763-9.864S904,522.744,904,522.744l63.817-16.44s76.581-2.192,80.835-39.455,0-43.839,0-43.839l5.318-12.056-43.609-27.4Z" transform="translate(-723.361 -86.049)" fill="#2f2e41"/>
    <path id="Path_268" data-name="Path 268" d="M868.964,562.2,891.3,583.021s19.145-8.768,30.845-5.48,31.909,5.48,31.909,5.48l-3.191,18.631-27.137-5.159,21.819,31.462s0,49.318-13.827,49.318-9.573-29.591-9.573-29.591L879.6,613.708s-21.272-8.768-23.4-8.768S868.964,562.2,868.964,562.2Z" transform="translate(-642.593 -86.049)" fill="#2f2e41"/>
    <ellipse id="Ellipse_49" data-name="Ellipse 49" cx="36.163" cy="37.263" rx="36.163" ry="37.263" transform="translate(336.25 97.493)" fill="#a0616a"/>
    <path id="Path_269" data-name="Path 269" d="M894.844,249.848s-17.018-4.384-22.336,0-6.382,14.248-13.827,15.343-13.827,1.1-14.891,2.192-25.527,31.783-25.527,31.783-14.891,8.768-18.082,20.823-35.1,52.606-39.354,56.99,27.654,26.3,38.29,33.975,41.481,10.96,51.054-6.576S911.861,272.863,894.844,249.848Z" transform="translate(-488.376 -86.049)" fill="#f280b6"/>
    <path id="Path_270" data-name="Path 270" d="M881.027,321.085,872.518,371.5s-90.408-9.864-96.79,8.768-8.509,24.111-8.509,24.111l18.081,6.577,8.509-16.44a19.662,19.662,0,0,1,15.954,1.1c8.509,4.384,82.963,15.344,88.281,1.1s20.209-66.854,20.209-66.854l-22.336-18.631Z" transform="translate(-515.605 -86.049)" fill="#a0616a"/>
    <path id="Path_271" data-name="Path 271" d="M774.922,254.459s-25.644,55.667-23.517,71.011,9.573,4.384,9.573,4.384,9.573-15.344,13.827-6.576,9.573,20.823,13.827,19.727,27.654-82.2,14.891-89.869S774.922,254.459,774.922,254.459Z" transform="translate(-386.213 -86.049)" fill="#f280b6"/>
    <ellipse id="Ellipse_50" data-name="Ellipse 50" cx="47.755" cy="49.207" rx="47.755" ry="49.207" transform="translate(396.209 0)" fill="#2f2e41"/>
    <path id="Path_272" data-name="Path 272" d="M738.483,176a46.6,46.6,0,0,1-43.349,6.707,48.583,48.583,0,0,1-30.4-32.545,48.931,48.931,0,0,0,31.288,40.19,46.723,46.723,0,0,0,48.933-10.6,50.22,50.22,0,0,0,12.935-49.77A49.843,49.843,0,0,1,738.483,176Z" transform="translate(-252.807 -86.049)" fill="#2f2e41"/>
    <ellipse id="Ellipse_51" data-name="Ellipse 51" cx="35.02" cy="36.085" rx="35.02" ry="36.085" transform="translate(365.721 86.112)" fill="#2f2e41"/>
    <ellipse id="Ellipse_52" data-name="Ellipse 52" cx="31.041" cy="25.014" rx="31.041" ry="25.014" transform="translate(342.329 83.651)" fill="#2f2e41"/>
    <ellipse id="Ellipse_53" data-name="Ellipse 53" cx="6.914" cy="12.604" rx="6.914" ry="12.604" transform="translate(365.307 125.988)" fill="#a0616a"/>
    <path id="Path_273" data-name="Path 273" d="M925.56,410.476s-18.829-11.131-22.325-8.34-5.049,11.525-5.049,11.525l21.762,8.8,6.382-12.056Z" transform="translate(-651.736 -86.049)" fill="#2f2e41"/>
  </g>
</svg>
