<svg xmlns="http://www.w3.org/2000/svg" xmlns:xlink="http://www.w3.org/1999/xlink" width="615" height="512.31" viewBox="0 0 615 512.31">
  <defs>
    <linearGradient id="linear-gradient" x1="0.5" y1="1" x2="0.5" gradientUnits="objectBoundingBox">
      <stop offset="0" stop-color="gray" stop-opacity="0.251"/>
      <stop offset="0.54" stop-color="gray" stop-opacity="0.122"/>
      <stop offset="1" stop-color="gray" stop-opacity="0.102"/>
    </linearGradient>
  </defs>
  <g id="undraw_contact_us_15o2" transform="translate(-370 -63.43)">
    <g id="Group_2" data-name="Group 2" opacity="0.1">
      <ellipse id="Ellipse_4" data-name="Ellipse 4" cx="8.51" cy="11.13" rx="8.51" ry="11.13" transform="translate(603.77 319.13)" fill="#3f3d56"/>
      <path id="Path_4" data-name="Path 4" d="M671,445.26a13.43,13.43,0,0,0,1.77-6.8c0-6.15-3.81-11.14-8.5-11.14s-8.51,5-8.51,11.14a13.331,13.331,0,0,0,1.78,6.8,13.9,13.9,0,0,0,0,13.61,13.9,13.9,0,0,0,0,13.61,13.33,13.33,0,0,0-1.78,6.8c0,6.15,3.81,11.14,8.51,11.14s8.5-5,8.5-11.14a13.43,13.43,0,0,0-1.77-6.8,14,14,0,0,0,0-13.61,14,14,0,0,0,0-13.61Z" transform="translate(-52 -162.63)" fill="#4e3d56"/>
      <ellipse id="Ellipse_5" data-name="Ellipse 5" cx="8.51" cy="11.13" rx="8.51" ry="11.13" transform="translate(603.77 251.09)" fill="#3f3d56"/>
      <ellipse id="Ellipse_6" data-name="Ellipse 6" cx="8.51" cy="11.13" rx="8.51" ry="11.13" transform="translate(603.77 237.48)" fill="#3f3d56"/>
      <path id="Path_5" data-name="Path 5" d="M632.44,318.11a39,39,0,0,1-3.17-4.66l22.35-3.67-24.17.18a40.84,40.84,0,0,1-.78-32.29L659.1,294.5l-29.91-22a40.75,40.75,0,1,1,67.29,45.6,41.206,41.206,0,0,1,4.65,7.43l-29,15.07,30.93-10.38a40.76,40.76,0,0,1-6.57,38.26,40.74,40.74,0,1,1-64,0,40.74,40.74,0,0,1,0-50.38Z" transform="translate(-52 -162.63)" fill="#f280b6"/>
      <path id="Path_6" data-name="Path 6" d="M705.2,343.3a40.57,40.57,0,0,1-8.72,25.19,40.74,40.74,0,1,1-64,0C627,361.56,705.2,338.73,705.2,343.3Z" transform="translate(-52 -162.63)" opacity="0.1"/>
    </g>
    <g id="Group_4" data-name="Group 4" opacity="0.1">
      <ellipse id="Ellipse_10" data-name="Ellipse 10" cx="8.51" cy="11.13" rx="8.51" ry="11.13" transform="translate(920.21 313.13)" fill="#4e3d56"/>
      <path id="Path_10" data-name="Path 10" d="M974,439.26a13.43,13.43,0,0,1-1.77-6.8c0-6.15,3.81-11.14,8.5-11.14s8.51,5,8.51,11.14a13.329,13.329,0,0,1-1.78,6.8,13.9,13.9,0,0,1,0,13.61,13.9,13.9,0,0,1,0,13.61,13.329,13.329,0,0,1,1.78,6.8c0,6.15-3.81,11.14-8.51,11.14s-8.5-5-8.5-11.14a13.43,13.43,0,0,1,1.77-6.8,14,14,0,0,1,0-13.61,14,14,0,0,1,0-13.61Z" transform="translate(-52 -162.63)" fill="#4e3d56"/>
      <ellipse id="Ellipse_11" data-name="Ellipse 11" cx="8.51" cy="11.13" rx="8.51" ry="11.13" transform="translate(920.21 245.09)" fill="#3f3d56"/>
      <ellipse id="Ellipse_12" data-name="Ellipse 12" cx="8.51" cy="11.13" rx="8.51" ry="11.13" transform="translate(920.21 231.48)" fill="#3f3d56"/>
      <path id="Path_11" data-name="Path 11" d="M1012.56,312.11a38.989,38.989,0,0,0,3.17-4.66l-22.35-3.67,24.17.18a40.84,40.84,0,0,0,.78-32.29L985.9,288.5l29.91-22a40.75,40.75,0,1,0-67.29,45.6,41.2,41.2,0,0,0-4.65,7.43l29,15.07L942,324.23a40.76,40.76,0,0,0,6.57,38.26,40.74,40.74,0,1,0,64,0,40.74,40.74,0,0,0,0-50.38Z" transform="translate(-52 -162.63)" fill="#f280b6"/>
      <path id="Path_12" data-name="Path 12" d="M939.8,337.3a40.571,40.571,0,0,0,8.72,25.19,40.74,40.74,0,1,0,64,0C1018,355.56,939.8,332.73,939.8,337.3Z" transform="translate(-52 -162.63)" opacity="0.1"/>
    </g>
    <ellipse id="Ellipse_19" data-name="Ellipse 19" cx="306.5" cy="7.86" rx="306.5" ry="7.86" transform="translate(372 485.27)" fill="#f280b6" opacity="0.1"/>
    <ellipse id="Ellipse_20" data-name="Ellipse 20" cx="301.5" cy="9.86" rx="301.5" ry="9.86" transform="translate(382 556.02)" fill="#f280b6" opacity="0.1"/>
    <ellipse id="Ellipse_22" data-name="Ellipse 22" cx="307.5" cy="5.86" rx="307.5" ry="5.86" transform="translate(370 411.35)" fill="#f280b6" opacity="0.1"/>
    <path id="Path_19" data-name="Path 19" d="M860.79,273a18.3,18.3,0,0,0-10.6,1.16,15.65,15.65,0,0,1-12.74,0,17.88,17.88,0,0,0-15,.29,9.24,9.24,0,0,1-4.31,1.08c-6.08,0-11.13-6.12-12.18-14.19a11.879,11.879,0,0,0,3-3.27c3.56-5.74,9.07-9.43,15.27-9.43s11.64,3.64,15.2,9.32a11.68,11.68,0,0,0,10.09,5.54h.16C854.57,263.45,858.76,267.33,860.79,273Z" transform="translate(-52 -162.63)" fill="#6c63ff" opacity="0.1"/>
    <path id="Path_20" data-name="Path 20" d="M879.3,247.65l-9.82,6.22,6-10.84a9.7,9.7,0,0,0-5.94-2.11h-.16a11.351,11.351,0,0,1-2-.15L864,242.88l1.43-2.6a11.79,11.79,0,0,1-5.83-4.42l-6,3.78,3.76-6.84c-3.48-4.18-8.18-6.74-13.34-6.74-6.2,0-11.71,3.68-15.28,9.42a11.41,11.41,0,0,1-10.09,5.44h-.33c-6.84,0-12.38,7.75-12.38,17.31s5.54,17.32,12.38,17.32a9.39,9.39,0,0,0,4.31-1.08,17.86,17.86,0,0,1,15-.3,15.55,15.55,0,0,0,12.74,0,17.92,17.92,0,0,1,14.86.29,9.3,9.3,0,0,0,4.26,1.06c6.84,0,12.38-7.76,12.38-17.32a21.93,21.93,0,0,0-2.57-10.55Z" transform="translate(-52 -162.63)" fill="#f280b6" opacity="0.1"/>
    <path id="Path_25" data-name="Path 25" d="M716.31,652.89c2.61-4.84-.35-10.76-3.75-15.07s-7.56-8.8-7.47-14.29c.13-7.89,8.51-12.56,15.2-16.74a74.3,74.3,0,0,0,13.65-11,20.128,20.128,0,0,0,4.19-5.62c1.39-3.08,1.35-6.6,1.26-10q-.43-16.89-1.67-33.76" transform="translate(-52 -162.63)" fill="none" stroke="#3f3d56" stroke-miterlimit="10" stroke-width="4"/>
    <path id="Path_26" data-name="Path 26" d="M750.45,545.85a12.31,12.31,0,0,0-6.15-10.09l-2.76,5.45.09-6.6a12.31,12.31,0,1,0,8.82,11.24Z" transform="translate(-52 -162.63)" fill="#f280b6"/>
    <path id="Path_27" data-name="Path 27" d="M728.49,629.17a12.31,12.31,0,0,1-23.24-5,12,12,0,0,1,.8-5,12.32,12.32,0,0,1,23,.13l-7.69,6.26,8.46-2A12.24,12.24,0,0,1,728.49,629.17Z" transform="translate(-52 -162.63)" fill="#f280b6"/>
    <path id="Path_28" data-name="Path 28" d="M722.41,605.27a12.31,12.31,0,0,1-3.9-24.15l-.07,5.07,2.79-5.52h0a12.313,12.313,0,1,1,1.15,24.6Z" transform="translate(-52 -162.63)" fill="#f280b6"/>
    <path id="Path_29" data-name="Path 29" d="M752.3,585.38a12.31,12.31,0,1,1,5.44-23l-2.17,6L760,564a12.31,12.31,0,0,1-7.74,21.37Z" transform="translate(-52 -162.63)" fill="#f280b6"/>
    <path id="Path_30" data-name="Path 30" d="M748.79,549.13c-2.84.31-5.6,1.19-8.46,1.37s-6-.51-7.78-2.72a39.469,39.469,0,0,1-2.28-4,8.76,8.76,0,0,0-3.1-2.92,12.31,12.31,0,1,0,23,8.18C749.72,549.05,749.25,549.08,748.79,549.13Z" transform="translate(-52 -162.63)" opacity="0.1"/>
    <path id="Path_31" data-name="Path 31" d="M752.3,585.38a12.31,12.31,0,0,1-11.71-17.56,9.11,9.11,0,0,1,2.47,2.48,41.724,41.724,0,0,0,2.44,4.07c1.92,2.25,5.2,3,8.17,2.85s5.84-1,8.8-1.25c.41,0,.82-.06,1.24-.07a12.31,12.31,0,0,1-11.41,9.48Z" transform="translate(-52 -162.63)" opacity="0.1"/>
    <path id="Path_32" data-name="Path 32" d="M722.41,605.27a12.31,12.31,0,0,1-11.81-17.33,10,10,0,0,1,2.61,2.5,41.241,41.241,0,0,0,2.67,4.15c2.07,2.31,5.57,3.13,8.71,3s6-.81,9-1a12.33,12.33,0,0,1-11.18,8.68Z" transform="translate(-52 -162.63)" opacity="0.1"/>
    <path id="Path_33" data-name="Path 33" d="M728.49,629.17a12.31,12.31,0,0,1-23.24-5,12,12,0,0,1,.8-5,12.289,12.289,0,0,1,2.7,2.41c1.17,1.42,1.94,3,3.3,4.37,2.51,2.47,6.58,3.49,10.19,3.58a51.711,51.711,0,0,0,6.25-.36Z" transform="translate(-52 -162.63)" opacity="0.1"/>
    <path id="Path_43" data-name="Path 43" d="M512.52,498.52c-2.61-4.83.35-10.75,3.76-15.06s7.55-8.8,7.46-14.29c-.12-7.9-8.5-12.56-15.2-16.74a74,74,0,0,1-13.64-11,19.779,19.779,0,0,1-4.2-5.61c-1.38-3.09-1.34-6.6-1.26-10q.45-16.89,1.67-33.76" transform="translate(-52 -162.63)" fill="none" stroke="#3f3d56" stroke-miterlimit="10" stroke-width="4"/>
    <path id="Path_44" data-name="Path 44" d="M478.39,391.49a12.3,12.3,0,0,1,6.14-10.09l2.76,5.45-.08-6.6a12.621,12.621,0,0,1,4.05-.49,12.31,12.31,0,1,1-12.87,11.73Z" transform="translate(-52 -162.63)" fill="#f280b6"/>
    <path id="Path_45" data-name="Path 45" d="M500.34,474.81a12.31,12.31,0,1,0-.59-9.91l7.69,6.26-8.46-2a12.241,12.241,0,0,0,1.36,5.65Z" transform="translate(-52 -162.63)" fill="#f280b6"/>
    <path id="Path_46" data-name="Path 46" d="M506.42,450.91a12.31,12.31,0,0,0,3.91-24.15l.06,5.07-2.79-5.52h0A12.31,12.31,0,0,0,494.7,438a12.16,12.16,0,0,0,.53,4.2,12.3,12.3,0,0,0,11.19,8.71Z" transform="translate(-52 -162.63)" fill="#f280b6"/>
    <path id="Path_47" data-name="Path 47" d="M476.54,431a12.31,12.31,0,1,0-5.45-23l2.18,6-4.48-4.29a12.21,12.21,0,0,0-4,8.5,11.909,11.909,0,0,0,.31,3.39,12.3,12.3,0,0,0,11.44,9.4Z" transform="translate(-52 -162.63)" fill="#f280b6"/>
    <path id="Path_48" data-name="Path 48" d="M480.05,394.77c2.84.31,5.6,1.19,8.45,1.37s6-.51,7.79-2.72a39.39,39.39,0,0,0,2.27-4,8.79,8.79,0,0,1,3.11-2.92,12.31,12.31,0,1,1-23,8.17C479.12,394.68,479.58,394.72,480.05,394.77Z" transform="translate(-52 -162.63)" opacity="0.1"/>
    <path id="Path_49" data-name="Path 49" d="M476.54,431a12.32,12.32,0,0,0,11.71-17.56,9.151,9.151,0,0,0-2.48,2.48,41.716,41.716,0,0,1-2.44,4.07c-1.91,2.25-5.19,3-8.16,2.85s-5.84-1-8.8-1.25c-.41,0-.83-.06-1.24-.07A12.3,12.3,0,0,0,476.54,431Z" transform="translate(-52 -162.63)" opacity="0.1"/>
    <path id="Path_50" data-name="Path 50" d="M506.42,450.91a12.3,12.3,0,0,0,11.81-17.33,9.829,9.829,0,0,0-2.6,2.5,41.233,41.233,0,0,1-2.67,4.15c-2.08,2.31-5.57,3.13-8.72,3s-6-.81-9-1a12.3,12.3,0,0,0,11.18,8.68Z" transform="translate(-52 -162.63)" opacity="0.1"/>
    <path id="Path_51" data-name="Path 51" d="M500.34,474.81a12.31,12.31,0,0,0,22.45-10,11.82,11.82,0,0,0-2.7,2.41c-1.17,1.42-2,3-3.3,4.37-2.52,2.47-6.58,3.49-10.2,3.58a53.952,53.952,0,0,1-6.25-.36Z" transform="translate(-52 -162.63)" opacity="0.1"/>
    <path id="Path_200" data-name="Path 200" d="M99.96,0A99.96,99.96,0,1,1,0,99.96,99.96,99.96,0,0,1,99.96,0Z" transform="translate(679.77 138.22)" fill="#4e3d56"/>
    <path id="Path_52" data-name="Path 52" d="M874.64,426.59c-3.48-3.48-11.85-8.73-16-10.69-4.79-2.3-6.55-2.26-9.94.19-2.82,2-4.65,3.93-7.89,3.22s-9.66-5.55-15.87-11.74S813.91,395,813.22,391.71s1.21-5.08,3.23-7.9c2.44-3.39,2.51-5.15.19-9.94-2-4.15-7.19-12.5-10.7-16s-4.27-2.73-6.19-2a35.8,35.8,0,0,0-5.67,3c-3.48,2.33-5.43,4.27-6.8,7.19s-2.92,8.34,5.05,22.53a125.691,125.691,0,0,0,22.1,29.47h0A125.878,125.878,0,0,0,844,440.2c14.18,8,19.61,6.41,22.53,5.05s4.86-3.29,7.18-6.8a35.331,35.331,0,0,0,3-5.67C877.37,430.86,878.15,430.08,874.64,426.59Z" transform="translate(-52 -162.63)" fill="#f280b6"/>
    <path id="Path_53" data-name="Path 53" d="M831.73,300.86a100,100,0,1,0,99.95,99.967A100,100,0,0,0,831.73,300.86Zm0,186.62a86.67,86.67,0,1,1,86.67-86.67,86.67,86.67,0,0,1-86.67,86.67Z" transform="translate(-52 -162.63)" opacity="0.1"/>
    <circle id="Ellipse_24" data-name="Ellipse 24" cx="99.96" cy="99.96" r="99.96" transform="translate(450.12 290.05)" fill="#4e3d56"/>
    <path id="Path_54" data-name="Path 54" d="M658.93,522.44,629,552.89a.54.54,0,0,0,0,.78L650,576a3.613,3.613,0,1,1-5.11,5.11L624,558.86a.57.57,0,0,0-.8,0L618.11,564a22.37,22.37,0,0,1-16,6.73,22.86,22.86,0,0,1-16.28-6.92l-4.89-5a.57.57,0,0,0-.8,0l-20.84,22.2a3.613,3.613,0,1,1-5.11-5.11l20.92-22.28a.6.6,0,0,0,0-.78l-29.93-30.45a.55.55,0,0,0-.94.39v60.93a8.92,8.92,0,0,0,8.89,8.89H651a8.92,8.92,0,0,0,8.89-8.89V522.83a.55.55,0,0,0-.96-.39Z" transform="translate(-52 -162.63)" fill="#f280b6"/>
    <path id="Path_55" data-name="Path 55" d="M602.08,563.5A15.14,15.14,0,0,0,613,559l43.59-44.37a8.7,8.7,0,0,0-5.5-2H553.15a8.64,8.64,0,0,0-5.5,2L591.25,559A15.08,15.08,0,0,0,602.08,563.5Z" transform="translate(-52 -162.63)" fill="#f280b6"/>
    <path id="Path_56" data-name="Path 56" d="M600.82,452.69a100,100,0,1,0,99.95,99.967A100,100,0,0,0,600.82,452.69Zm0,186.62a86.67,86.67,0,1,1,86.67-86.67,86.67,86.67,0,0,1-86.67,86.67Z" transform="translate(-52 -162.63)" opacity="0.1"/>
    <path id="Path_59" data-name="Path 59" d="M840.93,603.88q-1.36-3.32-2.79-6.62a19.649,19.649,0,0,0-3.41-5.89,6.24,6.24,0,0,0-2-1.5,8.529,8.529,0,0,0-2.61-.52,20.834,20.834,0,0,0-4.1-.11c-.53-.16-1.13-.37-1.72-.61a14.28,14.28,0,0,0,10.64-13.25c0-.2,0-.41,0-.61a14.25,14.25,0,0,0-14.19-14.31,14,14,0,0,0-7.45,2.13,13.37,13.37,0,0,0-15,7.23,16.53,16.53,0,0,0-5.1,12.3c0,.21,0,.43,0,.63.26,7.77,5.28,14,11.62,14.63a6.661,6.661,0,0,0-1.84,1.23c-1.94,1.87-2.26,4.84-2.47,7.54l-.15,2-3.36,1.2a.62.62,0,0,0-.15,1.09l3.21,2.29v.57a2.5,2.5,0,0,0,.06.65,4.59,4.59,0,0,0-1.24,1.77,8.179,8.179,0,0,0-.29,3.24l.12,2.79a21.908,21.908,0,0,0,.85,6.21c.42,1.24,2.24,4.23,3.55,4.25-1.21,5.5-1.53,17.1-1.53,17.1-.15.15.27.29,1,.41.72,5.52,3.07,21,7.24,27.81a58.639,58.639,0,0,1,1.57,6.76s1.19,14.71,2.76,19.08c1.34,3.72,2.4,12.9,2.69,15.56a1.53,1.53,0,0,0-1.11,1.14c-.79,2.38-5.91,6-5.91,6a24.758,24.758,0,0,0-4.42,2.83c-1.61,1.45-1.55,2.76,5.6,1.94,13.8-1.59,16.16-6,16.16-6s-.22-.74-.55-1.7a18.461,18.461,0,0,0-1.81-4.27c-.2-.19-.4.13-.64.63a85.626,85.626,0,0,1-.94-19.31s.39-6.76-1.58-11.53a21.83,21.83,0,0,1,0-7.55c.79-3.18-3.15-18.69-3.15-18.69L816.23,651a3.28,3.28,0,0,1,.63,1.33l.06.23.06.33a.62.62,0,0,0,.16.31c1.54,6.4,5.76,24.13,5.76,26.73,0,3.18,3.94,11.13,3.94,11.13s1.57,13.12,4.33,18.28c2.1,3.93,2.15,9.69,2.05,12.23h0s-.47,3.27-1.26,4.06a9.66,9.66,0,0,0-1.49,2.59l-.09.19s-1.18,2.39-.39,2.79a19.37,19.37,0,0,0,9.46,1.19s1.58-2,1.58-2.78a12.524,12.524,0,0,0-.18-1.42c-.29-1.88-.83-4.84-.84-4.87.33-1.28-1-4.84-1-4.84l-.4-11.13a51.38,51.38,0,0,0-2.76-22.27s-2-7.15-1.57-9.14-.79-23.06-.79-23.06l-.12-.3a22.778,22.778,0,0,1,.12-4.47c.39-4.77-1.18-14.71-1.58-15.1a13.1,13.1,0,0,1-.56-3.29c.09-.83.36-3.26.73-6.28a112.885,112.885,0,0,0,11.62-1,1.45,1.45,0,0,0,1-.4,1.4,1.4,0,0,0,.23-.81C845.39,615.24,843.2,609.42,840.93,603.88ZM833,616.49c.41-2.85.85-5.61,1.29-7.66l.06.18a55.636,55.636,0,0,1,1.9,6.3A21.431,21.431,0,0,1,833,616.49Z" transform="translate(-52 -162.63)" fill="url(#linear-gradient)"/>
    <path id="Path_60" data-name="Path 60" d="M802.37,648.68s2.36,21.23,7.47,29.48a57.221,57.221,0,0,1,1.57,6.68s1.18,14.54,2.75,18.86,2.75,16.12,2.75,16.12,5.5,6.28,7.47,1.18a82.821,82.821,0,0,1-1.18-20.44s.39-6.68-1.57-11.4a21.319,21.319,0,0,1,0-7.46c.78-3.15-3.15-18.47-3.15-18.47l-3.14-15.33Z" transform="translate(-52 -162.63)" fill="#be6f72"/>
    <path id="Path_61" data-name="Path 61" d="M827.13,724.93s-2.36,4.32-16.11,5.89c-7.14.81-7.19-.48-5.58-1.92a24.894,24.894,0,0,1,4.4-2.8s5.11-3.53,5.89-5.89,3.54-.39,3.54-.39c3.93,5.89,4.72-1.58,5.5-.79a17.735,17.735,0,0,1,1.81,4.21C826.91,724.19,827.13,724.93,827.13,724.93Z" transform="translate(-52 -162.63)" fill="#05f2f2"/>
    <path id="Path_62" data-name="Path 62" d="M827.13,724.93s-2.36,4.32-16.11,5.89c-7.14.81-7.19-.48-5.58-1.92,1.12.71,3.38,1,7.93-.83,6.55-2.68,11.3-4.23,13.21-4.83C826.91,724.19,827.13,724.93,827.13,724.93Z" transform="translate(-52 -162.63)" opacity="0.1"/>
    <path id="Path_63" data-name="Path 63" d="M823.2,700.56s.39-6.68-1.57-11.4a21.318,21.318,0,0,1,0-7.46c.78-3.15-3.15-18.47-3.15-18.47l-3.14-15.33-2.72.16,3.11,15.17s3.93,15.32,3.15,18.47a21.318,21.318,0,0,0,0,7.46c2,4.72,1.57,11.4,1.57,11.4A82.818,82.818,0,0,0,821.63,721a3.441,3.441,0,0,1-1.14,1.62c1.46.66,3,.63,3.89-1.62A82.824,82.824,0,0,1,823.2,700.56Z" transform="translate(-52 -162.63)" opacity="0.1"/>
    <path id="Path_64" data-name="Path 64" d="M820.64,562.42a14,14,0,0,0-7.42,2.11,13.35,13.35,0,0,0-15,7.15,16.28,16.28,0,0,0-5.09,12.16c0,8.36,5.63,15.13,12.57,15.13,5,0,9.38-3.56,11.39-8.71a13.8,13.8,0,0,0,3.54.46,14.15,14.15,0,0,0,0-28.3Z" transform="translate(-52 -162.63)" fill="#3f3d56"/>
    <path id="Path_65" data-name="Path 65" d="M832.24,650.65l1.18,3.14s1.18,20.83.78,22.8,1.58,9,1.58,9a50.31,50.31,0,0,1,2.75,22l.39,11s1.57,4.32.79,5.11S833,723,833,723s.79-8.25-2-13.36-4.32-18.08-4.32-18.08-3.93-7.86-3.93-11-6.29-28.69-6.29-28.69Z" transform="translate(-52 -162.63)" fill="#be6f72"/>
    <path id="Path_66" data-name="Path 66" d="M801.58,650.26s.4-14.15,2-18.47a29.328,29.328,0,0,0,1.75-6.27s23.79,4.3,25.76,2.73c0,0,.39,5.5.79,5.89s2,10.22,1.57,14.94,0,4.71,0,4.71-16.12,2.36-16.51,0-1.57-2.35-1.57-2.35S800.8,651,801.58,650.26Z" transform="translate(-52 -162.63)" fill="#3f3d56"/>
    <g id="Group_7" data-name="Group 7" opacity="0.1">
      <path id="Path_67" data-name="Path 67" d="M814.55,650.26s-9.94-.27-12.94-.81v.81c-.78.78,13.76,1.18,13.76,1.18a1,1,0,0,1,.54.22C815.38,650.26,814.55,650.26,814.55,650.26Z" transform="translate(-52 -162.63)"/>
      <path id="Path_68" data-name="Path 68" d="M831.85,634.14c-.4-.39-.79-5.89-.79-5.89a1.691,1.691,0,0,1-.67.24c.14,1.66.41,4.21.67,4.47s2,10.22,1.57,14.94,0,4.71,0,4.71-12.75,1.87-15.84.62a4.745,4.745,0,0,0,.12.56c.39,2.36,16.51,0,16.51,0s-.4,0,0-4.71S832.24,634.54,831.85,634.14Z" transform="translate(-52 -162.63)"/>
      <path id="Path_69" data-name="Path 69" d="M814.55,650.26s-9.94-.27-12.94-.81v.81c-.78.78,13.76,1.18,13.76,1.18a1,1,0,0,1,.54.22C815.38,650.26,814.55,650.26,814.55,650.26Z" transform="translate(-52 -162.63)"/>
      <path id="Path_70" data-name="Path 70" d="M831.85,634.14c-.4-.39-.79-5.89-.79-5.89a1.691,1.691,0,0,1-.67.24c.14,1.66.41,4.21.67,4.47s2,10.22,1.57,14.94,0,4.71,0,4.71-12.75,1.87-15.84.62a4.745,4.745,0,0,0,.12.56c.39,2.36,16.51,0,16.51,0s-.4,0,0-4.71S832.24,634.54,831.85,634.14Z" transform="translate(-52 -162.63)"/>
    </g>
    <path id="Path_71" data-name="Path 71" d="M818.9,587.18a5.21,5.21,0,0,0,1.5,1.94,3.36,3.36,0,0,0,1.41.61c-.88.51-1.84.89-2.72,1.4a48.362,48.362,0,0,0-4,3,8.139,8.139,0,0,1-4.59,1.78,5.62,5.62,0,0,0,.64-5.59,5.221,5.221,0,0,1-.7-1.94c0-1.13,1-2,1.93-2.6.75-.51,1.52-1,2.3-1.49.61-.38,1.53-1.18,2.3-1.15s.86.71,1,1.41A11.087,11.087,0,0,0,818.9,587.18Z" transform="translate(-52 -162.63)" fill="#be6f72"/>
    <path id="Path_72" data-name="Path 72" d="M818.9,587.18a5.21,5.21,0,0,0,1.5,1.94,3.36,3.36,0,0,0,1.41.61c-.88.51-1.84.89-2.72,1.4a48.362,48.362,0,0,0-4,3,8.139,8.139,0,0,1-4.59,1.78,5.62,5.62,0,0,0,.64-5.59,5.221,5.221,0,0,1-.7-1.94c0-1.13,1-2,1.93-2.6.75-.51,1.52-1,2.3-1.49.61-.38,1.53-1.18,2.3-1.15s.86.71,1,1.41A11.087,11.087,0,0,0,818.9,587.18Z" transform="translate(-52 -162.63)" opacity="0.1"/>
    <circle id="Ellipse_26" data-name="Ellipse 26" cx="9.04" cy="9.04" r="9.04" transform="translate(767.07 429.66)" fill="#be6f72"/>
    <path id="Path_73" data-name="Path 73" d="M840.88,729.64c0,.79-1.57,2.75-1.57,2.75a19.46,19.46,0,0,1-9.43-1.18c-.79-.39.39-2.75.39-2.75l.09-.19a9.541,9.541,0,0,1,1.49-2.56c.78-.78,1.25-4,1.25-4,2.44-4,6.77,1.73,6.77,1.73s.55,3,.84,4.82A13.7,13.7,0,0,1,840.88,729.64Z" transform="translate(-52 -162.63)" fill="#05f2f2"/>
    <path id="Path_74" data-name="Path 74" d="M840.88,729.64c0,.79-1.57,2.75-1.57,2.75a19.46,19.46,0,0,1-9.43-1.18c-.79-.39.39-2.75.39-2.75l.09-.19a19,19,0,0,0,8.56,1.76l1.79-1.79C840.81,728.91,840.88,729.44,840.88,729.64Z" transform="translate(-52 -162.63)" opacity="0.1"/>
    <circle id="Ellipse_27" data-name="Ellipse 27" cx="8.84" cy="8.84" r="8.84" transform="translate(749.19 410.99)" fill="#be6f72"/>
    <path id="Path_75" data-name="Path 75" d="M802.9,600.14c-1.94,1.85-2.26,4.78-2.46,7.45l-.3,3.91a19.735,19.735,0,0,0-.07,3.17c0,.65.16,1.31.22,2s.08,1.56.09,2.35v5.78a6.819,6.819,0,0,0,.64,3.47,2.36,2.36,0,0,0,3,1.08,3.42,3.42,0,0,0,1.24-1.92,29.849,29.849,0,0,0,2-7.32c.08-.87.09-1.74.17-2.61s.23-1.78.36-2.66c.56-3.68.81-7.4,1.06-11.11.07-1.1,1.06-5.43-.38-5.91-.7-.23-2.15.49-2.82.73a7.94,7.94,0,0,0-2.75,1.59Z" transform="translate(-52 -162.63)" fill="#be6f72"/>
    <path id="Path_76" data-name="Path 76" d="M802.9,600.14c-1.94,1.85-2.26,4.78-2.46,7.45l-.3,3.91a19.735,19.735,0,0,0-.07,3.17c0,.65.16,1.31.22,2s.08,1.56.09,2.35v5.78a6.819,6.819,0,0,0,.64,3.47,2.36,2.36,0,0,0,3,1.08,3.42,3.42,0,0,0,1.24-1.92,29.849,29.849,0,0,0,2-7.32c.08-.87.09-1.74.17-2.61s.23-1.78.36-2.66c.56-3.68.81-7.4,1.06-11.11.07-1.1,1.06-5.43-.38-5.91-.7-.23-2.15.49-2.82.73a7.94,7.94,0,0,0-2.75,1.59Z" transform="translate(-52 -162.63)" opacity="0.1"/>
    <path id="Path_77" data-name="Path 77" d="M821.23,588.16s-6.68,5.11-10.61,6.29c0,0-2.33,2.66-2.73,3.3s-1.2,7.7-2,9.28-2.75,5.11,0,8.64c0,0,.78,3.54.39,4.72s-1.82,5.5-.52,5.7,5.24,2.94,8.77,2.16,16.71,3,16.71,3S833.42,611,835,607.42l-3.54-1.18s-9.82-5.89-3.93-14.93C827.52,591.31,822,590.13,821.23,588.16Z" transform="translate(-52 -162.63)" fill="#05f2f2"/>
    <path id="Path_78" data-name="Path 78" d="M796.84,611.83l8.12,5.75a.6.6,0,0,0,.71,0l2.2-1.65a.62.62,0,0,0,0-.94l-6.25-5.55a.6.6,0,0,0-.61-.12L797,610.76a.61.61,0,0,0-.16,1.07Z" transform="translate(-52 -162.63)" fill="#3f3d56"/>
    <path id="Path_79" data-name="Path 79" d="M799.57,629.15a21.762,21.762,0,0,1-.85-6.13l-.12-2.77a8,8,0,0,1,.29-3.2,5.23,5.23,0,0,1,3.37-2.95,11.639,11.639,0,0,1,4.59-.33,1.18,1.18,0,0,1,.59.16,1.1,1.1,0,0,1,.32.54,3.62,3.62,0,0,1,.18,2.89,3,3,0,0,1-.92.95c-1.09.78-2.36,1.3-3.39,2.15a1.23,1.23,0,0,0-.46.58,1.351,1.351,0,0,0,0,.63,10.075,10.075,0,0,0,.52,1.61,1.59,1.59,0,0,0,.45.68c.19.16.44.22.64.37.43.35,1.33.81,1.28,1.36-.15,2-1.35,4.24-1.82,6.22C803.34,635.78,800.15,630.84,799.57,629.15Z" transform="translate(-52 -162.63)" fill="#be6f72"/>
    <g id="Group_8" data-name="Group 8" opacity="0.1">
      <path id="Path_80" data-name="Path 80" d="M812.2,628.25h-.22a6.732,6.732,0,0,0,2.57,0h.25a9,9,0,0,0-2.6,0Z" transform="translate(-52 -162.63)"/>
      <path id="Path_81" data-name="Path 81" d="M832.83,606.83c-1.41,3.17-3.49,20.34-3.86,23.75,1.38.36,2.29.62,2.29.62s2.16-20.2,3.74-23.78Z" transform="translate(-52 -162.63)"/>
    </g>
    <path id="Path_82" data-name="Path 82" d="M828.42,601.61a3,3,0,0,0,1.29,1.95,17.313,17.313,0,0,1,2.29,2.32,16.429,16.429,0,0,1,2.27,4.55,55.742,55.742,0,0,1,1.89,6.22c-5,2.32-10.68,2.21-16,3.74a12.77,12.77,0,0,0-6,3.55,8.269,8.269,0,0,0-2.21,6.51.849.849,0,0,0,.12.39.84.84,0,0,0,.7.28,6,6,0,0,0,3.67-1.26,17.466,17.466,0,0,0,2.81-2.76,4.52,4.52,0,0,1,2-1.48c2.89-.88,6-.83,9-.88a113.416,113.416,0,0,0,13.41-1.06,1.08,1.08,0,0,0,1.2-1.2c.44-5.9-1.75-11.66-4-17.13q-1.35-3.29-2.78-6.55a19.4,19.4,0,0,0-3.4-5.82,6,6,0,0,0-2-1.48A8.458,8.458,0,0,0,830,591a19,19,0,0,0-4.39-.08,9.354,9.354,0,0,0-.42,2.27c.08,2.7,1.26,5.23,2.42,7.67C827.76,601.23,828.19,601.25,828.42,601.61Z" transform="translate(-52 -162.63)" fill="#be6f72"/>
    <path id="Path_83" data-name="Path 83" d="M812.41,606.67a7.329,7.329,0,0,0-1,3.82,5.145,5.145,0,0,0,.25,1.56,5.06,5.06,0,0,0,3.19,3" transform="translate(-52 -162.63)" fill="none" stroke="#000" stroke-miterlimit="10" stroke-width="1" opacity="0.1"/>
    <path id="Path_84" data-name="Path 84" d="M817.5,573.82a4.589,4.589,0,0,0-1.45.23c-1.31-2-4.39-3.38-8-3.38-4.78,0-8.65,2.47-8.65,5.51s3.87,5.5,8.65,5.5a12.169,12.169,0,0,0,5.19-1.1,4.71,4.71,0,1,0,4.24-6.76Z" transform="translate(-52 -162.63)" fill="#3f3d56"/>
    <path id="Path_85" data-name="Path 85" d="M817.89,582.07a4.7,4.7,0,0,1-4.24-2.671,12.17,12.17,0,0,1-5.19,1.1c-4.77,0-8.64-2.46-8.64-5.5a3.3,3.3,0,0,1,0-.55,3.73,3.73,0,0,0-.44,1.73c0,3,3.87,5.5,8.65,5.5a12.169,12.169,0,0,0,5.19-1.1,4.71,4.71,0,0,0,8.87-1.17,4.69,4.69,0,0,1-4.2,2.66Z" transform="translate(-52 -162.63)" opacity="0.1"/>
    <path id="Path_86" data-name="Path 86" d="M798.23,574a13.35,13.35,0,0,1,15-7.15,14.14,14.14,0,0,1,21.52,10.86v-1.18a14.14,14.14,0,0,0-21.57-12,13.35,13.35,0,0,0-15,7.15,16.28,16.28,0,0,0-5.09,12.16v1.18A16,16,0,0,1,798.23,574Z" transform="translate(-52 -162.63)" opacity="0.1"/>
    <path id="Path_87" data-name="Path 87" d="M888.39,577c2.61-4.83-.35-10.76-3.76-15.07s-7.55-8.79-7.46-14.29c.12-7.89,8.5-12.55,15.2-16.74a73.9,73.9,0,0,0,13.64-11,19.93,19.93,0,0,0,4.2-5.61c1.38-3.09,1.34-6.6,1.26-10q-.44-16.9-1.67-33.76" transform="translate(-52 -162.63)" fill="none" stroke="#3f3d56" stroke-miterlimit="10" stroke-width="4"/>
    <path id="Path_88" data-name="Path 88" d="M922.52,469.93a12.29,12.29,0,0,0-6.14-10.08l-2.76,5.45.08-6.6a12.08,12.08,0,0,0-4.05-.49,12.31,12.31,0,1,0,12.87,11.72Z" transform="translate(-52 -162.63)" fill="#f280b6"/>
    <path id="Path_89" data-name="Path 89" d="M900.57,553.26a12.31,12.31,0,1,1,.59-9.92l-7.69,6.26,8.46-2a12.24,12.24,0,0,1-1.36,5.66Z" transform="translate(-52 -162.63)" fill="#f280b6"/>
    <path id="Path_90" data-name="Path 90" d="M894.49,529.35a12.31,12.31,0,0,1-3.91-24.15l-.06,5.07,2.79-5.51h0a12.313,12.313,0,1,1,1.15,24.6Z" transform="translate(-52 -162.63)" fill="#f280b6"/>
    <path id="Path_91" data-name="Path 91" d="M924.37,509.47a12.31,12.31,0,1,1,5.45-23l-2.18,6,4.48-4.3a12.24,12.24,0,0,1,4,8.5,11.881,11.881,0,0,1-.31,3.39A12.31,12.31,0,0,1,924.37,509.47Z" transform="translate(-52 -162.63)" fill="#f280b6"/>
    <path id="Path_92" data-name="Path 92" d="M920.87,473.21c-2.84.32-5.61,1.2-8.46,1.38s-6-.51-7.79-2.73a38.206,38.206,0,0,1-2.27-4,8.851,8.851,0,0,0-3.1-2.92,12.31,12.31,0,1,0,23,8.17C921.79,473.13,921.33,473.16,920.87,473.21Z" transform="translate(-52 -162.63)" opacity="0.1"/>
    <path id="Path_93" data-name="Path 93" d="M924.37,509.47a12.32,12.32,0,0,1-11.71-17.56,9.11,9.11,0,0,1,2.48,2.47,39.452,39.452,0,0,0,2.44,4.07c1.91,2.26,5.19,3,8.16,2.86s5.84-1,8.8-1.25c.41,0,.83-.07,1.24-.08a12.31,12.31,0,0,1-11.41,9.49Z" transform="translate(-52 -162.63)" opacity="0.1"/>
    <path id="Path_94" data-name="Path 94" d="M894.49,529.35A12.3,12.3,0,0,1,882.68,512a10.149,10.149,0,0,1,2.6,2.5c1,1.35,1.55,2.91,2.67,4.15,2.08,2.32,5.57,3.13,8.72,3.06s6-.82,9-1.05a12.31,12.31,0,0,1-11.18,8.69Z" transform="translate(-52 -162.63)" opacity="0.1"/>
    <path id="Path_95" data-name="Path 95" d="M900.57,553.26a12.32,12.32,0,0,1-22.45-10,12.059,12.059,0,0,1,2.7,2.41c1.18,1.43,1.95,3,3.3,4.38,2.52,2.47,6.58,3.48,10.2,3.58a53.945,53.945,0,0,0,6.25-.37Z" transform="translate(-52 -162.63)" opacity="0.1"/>
  </g>
</svg>
