<svg xmlns="http://www.w3.org/2000/svg" width="1381" height="448.163" viewBox="0 0 1381 448.163">
  <g id="Group_36" data-name="Group 36" transform="translate(-252.244 -268.87)">
    <path id="Path_171" data-name="Path 171" d="M347.878,687.984h-2a94,94,0,0,0-188,0h-2a96,96,0,1,1,192,0Z" transform="translate(102.122 28.016)" fill="#fddf33"/>
    <path id="Path_172" data-name="Path 172" d="M851.88,687.984h2.071c0-51.915,43.571-94,97.32-94s97.319,42.085,97.319,94h2.071c0-53.019-44.5-96-99.39-96s-99.39,42.981-99.39,96Z" transform="translate(574.342 28.016)" fill="#fddf33"/>
    <path id="Path_173" data-name="Path 173" d="M808.878,458.984h-2c0-94.841-77.159-172-172-172s-172,77.159-172,172h-2c0-95.944,78.056-174,174-174S808.878,363.04,808.878,458.984Z" transform="translate(102.122 28.016)" fill="#fddf33"/>
    <path id="Path_174" data-name="Path 174" d="M153.891,311.384l67.861-80.817H355.171L436.7,309.983l-1.647,1.059h.588V476.227H153.984V311.042Z" transform="translate(258 239)" fill="#fddf33"/>
    <rect id="Rectangle_72" data-name="Rectangle 72" width="15.383" height="53.249" transform="translate(468.102 515.248) rotate(180)" fill="#fddf33"/>
    <path id="Path_175" data-name="Path 175" d="M220.694,229.508l83.651,98.073V476.227H153.984v-167.3Z" transform="translate(258 239)" fill="#f280b6"/>
    <rect id="Rectangle_73" data-name="Rectangle 73" width="30.708" height="31.398" transform="translate(512.306 586.044)" fill="#3f3d56"/>
    <rect id="Rectangle_74" data-name="Rectangle 74" width="30.708" height="31.398" transform="translate(512.306 628.767)" fill="#3f3d56"/>
    <rect id="Rectangle_75" data-name="Rectangle 75" width="30.708" height="31.398" transform="translate(512.306 586.044)" fill="#fff"/>
    <rect id="Rectangle_76" data-name="Rectangle 76" width="30.708" height="31.398" transform="translate(512.306 628.767)" fill="#fff"/>
    <rect id="Rectangle_77" data-name="Rectangle 77" width="30.708" height="31.398" transform="translate(469.838 586.044)" fill="#3f3d56"/>
    <rect id="Rectangle_78" data-name="Rectangle 78" width="30.708" height="31.398" transform="translate(469.838 628.767)" fill="#3f3d56"/>
    <rect id="Rectangle_79" data-name="Rectangle 79" width="30.708" height="31.398" transform="translate(469.838 586.044)" fill="#fff"/>
    <rect id="Rectangle_80" data-name="Rectangle 80" width="30.708" height="31.398" transform="translate(469.838 628.767)" fill="#fff"/>
    <rect id="Rectangle_81" data-name="Rectangle 81" width="30.708" height="31.398" transform="translate(427.369 586.044)" fill="#3f3d56"/>
    <rect id="Rectangle_82" data-name="Rectangle 82" width="30.708" height="31.398" transform="translate(427.369 628.767)" fill="#3f3d56"/>
    <rect id="Rectangle_83" data-name="Rectangle 83" width="30.708" height="31.398" transform="translate(427.369 586.044)" fill="#fff"/>
    <rect id="Rectangle_84" data-name="Rectangle 84" width="30.708" height="31.398" transform="translate(427.369 628.767)" fill="#fff"/>
    <rect id="Rectangle_85" data-name="Rectangle 85" width="14" height="35" transform="translate(743 279)" fill="#f280b6"/>
    <rect id="Rectangle_86" data-name="Rectangle 86" width="119" height="405" transform="translate(637 311)" fill="#f280b6"/>
    <rect id="Rectangle_87" data-name="Rectangle 87" width="48" height="405" transform="translate(756 311)" fill="#fddf33"/>
    <rect id="Rectangle_88" data-name="Rectangle 88" width="18" height="18" transform="translate(658.5 346)" fill="#fff"/>
    <rect id="Rectangle_89" data-name="Rectangle 89" width="18" height="18" transform="translate(687.5 346)" fill="#fff"/>
    <rect id="Rectangle_90" data-name="Rectangle 90" width="18" height="18" transform="translate(716.5 346)" fill="#fff"/>
    <rect id="Rectangle_91" data-name="Rectangle 91" width="18" height="18" transform="translate(659 387)" fill="#fff"/>
    <rect id="Rectangle_92" data-name="Rectangle 92" width="18" height="18" transform="translate(688 387)" fill="#fff"/>
    <rect id="Rectangle_93" data-name="Rectangle 93" width="18" height="18" transform="translate(717 387)" fill="#fff"/>
    <rect id="Rectangle_94" data-name="Rectangle 94" width="18" height="18" transform="translate(659.5 428)" fill="#fff"/>
    <rect id="Rectangle_95" data-name="Rectangle 95" width="18" height="18" transform="translate(688.5 428)" fill="#fff"/>
    <rect id="Rectangle_96" data-name="Rectangle 96" width="18" height="18" transform="translate(717.5 428)" fill="#fff"/>
    <rect id="Rectangle_97" data-name="Rectangle 97" width="18" height="18" transform="translate(660 469)" fill="#fff"/>
    <rect id="Rectangle_98" data-name="Rectangle 98" width="18" height="18" transform="translate(689 469)" fill="#fff"/>
    <rect id="Rectangle_99" data-name="Rectangle 99" width="18" height="18" transform="translate(718 469)" fill="#fff"/>
    <rect id="Rectangle_100" data-name="Rectangle 100" width="18" height="18" transform="translate(660.5 510)" fill="#fff"/>
    <rect id="Rectangle_101" data-name="Rectangle 101" width="18" height="18" transform="translate(689.5 510)" fill="#fff"/>
    <rect id="Rectangle_102" data-name="Rectangle 102" width="18" height="18" transform="translate(718.5 510)" fill="#fff"/>
    <rect id="Rectangle_103" data-name="Rectangle 103" width="18" height="18" transform="translate(661 551)" fill="#fff"/>
    <rect id="Rectangle_104" data-name="Rectangle 104" width="18" height="18" transform="translate(690 551)" fill="#fff"/>
    <rect id="Rectangle_105" data-name="Rectangle 105" width="18" height="18" transform="translate(719 551)" fill="#fff"/>
    <rect id="Rectangle_106" data-name="Rectangle 106" width="18" height="18" transform="translate(661.5 592)" fill="#fff"/>
    <rect id="Rectangle_107" data-name="Rectangle 107" width="18" height="18" transform="translate(690.5 592)" fill="#fff"/>
    <rect id="Rectangle_108" data-name="Rectangle 108" width="18" height="18" transform="translate(719.5 592)" fill="#fff"/>
    <rect id="Rectangle_109" data-name="Rectangle 109" width="18" height="18" transform="translate(662 633)" fill="#fff"/>
    <rect id="Rectangle_110" data-name="Rectangle 110" width="18" height="18" transform="translate(691 633)" fill="#fff"/>
    <rect id="Rectangle_111" data-name="Rectangle 111" width="18" height="34" transform="translate(691 681)" fill="#fff"/>
    <rect id="Rectangle_112" data-name="Rectangle 112" width="18" height="18" transform="translate(720 633)" fill="#fff"/>
    <rect id="Rectangle_113" data-name="Rectangle 113" width="8" height="34" transform="translate(756 279)" fill="#fddf33"/>
    <rect id="Rectangle_114" data-name="Rectangle 114" width="14" height="20.744" transform="translate(893 457)" fill="#f280b6"/>
    <rect id="Rectangle_115" data-name="Rectangle 115" width="119" height="240.034" transform="translate(787 475.966)" fill="#f280b6"/>
    <rect id="Rectangle_116" data-name="Rectangle 116" width="48" height="240.034" transform="translate(906 475.966)" fill="#fddf33"/>
    <rect id="Rectangle_117" data-name="Rectangle 117" width="18" height="18" transform="translate(810.5 510)" fill="#fff"/>
    <rect id="Rectangle_118" data-name="Rectangle 118" width="18" height="18" transform="translate(839.5 510)" fill="#fff"/>
    <rect id="Rectangle_119" data-name="Rectangle 119" width="18" height="18" transform="translate(868.5 510)" fill="#fff"/>
    <rect id="Rectangle_120" data-name="Rectangle 120" width="18" height="18" transform="translate(811 551)" fill="#fff"/>
    <rect id="Rectangle_121" data-name="Rectangle 121" width="18" height="18" transform="translate(840 551)" fill="#fff"/>
    <rect id="Rectangle_122" data-name="Rectangle 122" width="18" height="18" transform="translate(869 551)" fill="#fff"/>
    <rect id="Rectangle_123" data-name="Rectangle 123" width="18" height="18" transform="translate(811.5 592)" fill="#fff"/>
    <rect id="Rectangle_124" data-name="Rectangle 124" width="18" height="18" transform="translate(840.5 592)" fill="#fff"/>
    <rect id="Rectangle_125" data-name="Rectangle 125" width="18" height="18" transform="translate(869.5 592)" fill="#fff"/>
    <rect id="Rectangle_126" data-name="Rectangle 126" width="18" height="18" transform="translate(812 633)" fill="#fff"/>
    <rect id="Rectangle_127" data-name="Rectangle 127" width="18" height="18" transform="translate(841 633)" fill="#fff"/>
    <rect id="Rectangle_128" data-name="Rectangle 128" width="18" height="34" transform="translate(841 681)" fill="#fff"/>
    <rect id="Rectangle_129" data-name="Rectangle 129" width="18" height="18" transform="translate(870 633)" fill="#fff"/>
    <rect id="Rectangle_130" data-name="Rectangle 130" width="8" height="20.151" transform="translate(906 457)" fill="#fddf33"/>
    <rect id="Rectangle_131" data-name="Rectangle 131" width="888" height="2.241" transform="translate(252.244 714.792)" fill="#fddf33"/>
    <ellipse id="Ellipse_49" data-name="Ellipse 49" cx="40.998" cy="39.599" rx="40.998" ry="39.599" transform="translate(1466.79 565)" fill="#f280b6"/>
    <path id="Path_178" data-name="Path 178" d="M996.43,550.134c7.846,17.727,1.236,38.335-15.613,48.671a41.762,41.762,0,0,1-52.248-7.039,41.324,41.324,0,0,0,74.517.842A38.3,38.3,0,0,0,996.43,550.134Z" transform="translate(542.036 28.454)" opacity="0.2"/>
    <path id="Path_179" data-name="Path 179" d="M809.4,365.6h-.113L807.26,477.87h4.28Z" transform="translate(698.275 239)" fill="#fddf33"/>
    <path id="Path_198" data-name="Path 198" d="M0,7.631l1.973.029L1.866.057-.108.029Z" transform="translate(1507.907 667.576) rotate(117.766)" fill="#fddf33"/>
    <circle id="Ellipse_50" data-name="Ellipse 50" cx="26.041" cy="26.041" r="26.041" transform="translate(258.619 616)" fill="#f280b6"/>
    <path id="Path_180" data-name="Path 180" d="M201.908,596.631a26.043,26.043,0,0,1-43.391,27.561,26.043,26.043,0,1,0,43.391-27.561Z" transform="translate(102.122 28.016)" opacity="0.2"/>
    <path id="Path_181" data-name="Path 181" d="M26.731,403.041H26.8L28.09,476.87H25.372Z" transform="translate(258 239)" fill="#fddf33"/>
    <rect id="Rectangle_134" data-name="Rectangle 134" width="1.288" height="4.865" transform="translate(288.872 681.117) rotate(62.234)" fill="#fddf33"/>
    <path id="Path_182" data-name="Path 182" d="M762.291,248.319l9.206-7.363c-7.151-.789-10.09,3.111-11.292,6.2-5.587-2.32-11.669.72-11.669.72l18.419,6.687a13.938,13.938,0,0,0-4.663-6.243Z" transform="translate(102.122 28.016)" fill="#fddf33"/>
    <path id="Path_183" data-name="Path 183" d="M300.291,285.319l9.206-7.363c-7.151-.789-10.09,3.111-11.293,6.2-5.587-2.32-11.669.72-11.669.72l18.419,6.687A13.938,13.938,0,0,0,300.291,285.319Z" transform="translate(102.122 28.016)" fill="#fddf33"/>
    <path id="Path_184" data-name="Path 184" d="M902.291,323.319l9.206-7.363c-7.151-.789-10.09,3.111-11.292,6.2-5.587-2.32-11.669.72-11.669.72l18.419,6.687a13.938,13.938,0,0,0-4.663-6.243Z" transform="translate(48.122 41.016)" fill="#fddf33"/>
    <path id="Path_185" data-name="Path 185" d="M376.291,265.319l9.206-7.363c-7.151-.789-10.09,3.111-11.293,6.2-5.587-2.32-11.669.72-11.669.72l18.419,6.687a13.938,13.938,0,0,0-4.663-6.243Z" transform="translate(102.122 28.016)" fill="#fddf33"/>
    <path id="Path_186" data-name="Path 186" d="M393.291,345.319l9.206-7.363c-7.151-.789-10.09,3.111-11.293,6.2-5.587-2.32-11.669.72-11.669.72l18.419,6.687a13.938,13.938,0,0,0-4.663-6.243Z" transform="translate(102.122 28.016)" fill="#fddf33"/>
    <path id="Path_187" data-name="Path 187" d="M751.291,387.319l9.206-7.363c-7.151-.789-10.09,3.111-11.292,6.2-5.587-2.32-11.669.72-11.669.72l18.419,6.687a13.938,13.938,0,0,0-4.663-6.243Z" transform="translate(102.122 28.016)" fill="#fddf33"/>
    <path id="Path_188" data-name="Path 188" d="M106,456H44v2h9.669v19h2V458H93.331v19h2V458H106Z" transform="translate(258 239)" fill="#fddf33"/>
    <path id="Path_189" data-name="Path 189" d="M324.878,674.984a13.919,13.919,0,0,0-6.971,1.871,14.982,14.982,0,0,0-25.029,11.129h45.949a13.991,13.991,0,0,0-13.949-13Z" transform="translate(102.122 28.016)" fill="#fddf33"/>
    <path id="Path_190" data-name="Path 190" d="M561.878,674.984a13.919,13.919,0,0,0-6.971,1.871,14.982,14.982,0,0,0-25.029,11.129h45.95a13.99,13.99,0,0,0-13.95-13Z" transform="translate(102.122 28.016)" fill="#fddf33"/>
    <path id="Path_191" data-name="Path 191" d="M716.878,674.984a13.919,13.919,0,0,0-6.971,1.871,14.982,14.982,0,0,0-25.029,11.129h45.95a13.99,13.99,0,0,0-13.95-13Z" transform="translate(102.122 28.016)" fill="#fddf33"/>
    <path id="Path_192" data-name="Path 192" d="M903.32,674.984a14.8,14.8,0,0,1,7.217,1.871,15.935,15.935,0,0,1,16.7-2.576,14.968,14.968,0,0,1,9.209,13.705H888.878a14.287,14.287,0,0,1,14.442-13Z" transform="translate(650.247 28.016)" fill="#fddf33"/>
    <path id="Path_193" data-name="Path 193" d="M1001.318,674.984a14.8,14.8,0,0,1,7.217,1.871,15.935,15.935,0,0,1,16.706-2.578,14.968,14.968,0,0,1,9.209,13.707H986.878a14.287,14.287,0,0,1,14.44-13Z" transform="translate(450.787 28.016)" fill="#fddf33"/>
    <path id="Path_194" data-name="Path 194" d="M129,407H113v16h7.417v53.912h2V423H129Z" transform="translate(258 239)" fill="#fddf33"/>
    <rect id="Rectangle_135" data-name="Rectangle 135" width="62" height="2" transform="translate(302.122 689.016)" fill="#fddf33"/>
    <rect id="Rectangle_136" data-name="Rectangle 136" width="62" height="2" transform="translate(302.122 684.016)" fill="#fddf33"/>
    <rect id="Rectangle_137" data-name="Rectangle 137" width="62" height="2" transform="translate(302.122 679.016)" fill="#fddf33"/>
    <path id="Path_174-2" data-name="Path 174" d="M153.891,311.384l64.943-80.817H346.517l78.028,79.416-1.576,1.059h.563V476.227H153.98V311.042Z" transform="translate(758.598 239)" fill="#fddf33"/>
    <rect id="Rectangle_72-2" data-name="Rectangle 72" width="14.721" height="53.249" transform="translate(951.524 462)" fill="#fddf33"/>
    <path id="Path_175-2" data-name="Path 175" d="M217.826,229.508l80.054,98.073V476.227h-143.9v-167.3Z" transform="translate(758.538 239)" fill="#f280b6"/>
    <rect id="Rectangle_75-2" data-name="Rectangle 75" width="30.663" height="31.398" transform="translate(925.503 585.044)" fill="#fff"/>
    <rect id="Rectangle_76-2" data-name="Rectangle 76" width="30.663" height="31.398" transform="translate(925.503 627.767)" fill="#fff"/>
    <rect id="Rectangle_79-2" data-name="Rectangle 79" width="30.663" height="31.398" transform="translate(967.973 585.044)" fill="#fff"/>
    <rect id="Rectangle_80-2" data-name="Rectangle 80" width="30.663" height="31.398" transform="translate(967.973 627.767)" fill="#fff"/>
    <rect id="Rectangle_83-2" data-name="Rectangle 83" width="30.663" height="31.398" transform="translate(1010.444 585.044)" fill="#fff"/>
    <rect id="Rectangle_84-2" data-name="Rectangle 84" width="30.663" height="31.398" transform="translate(1010.444 627.767)" fill="#fff"/>
    <rect id="Rectangle_85-2" data-name="Rectangle 85" width="15.709" height="35" transform="translate(1222.026 278)" fill="#f280b6"/>
    <rect id="Rectangle_86-2" data-name="Rectangle 86" width="133.523" height="405" transform="translate(1103 310)" fill="#f280b6"/>
    <rect id="Rectangle_87-2" data-name="Rectangle 87" width="83.858" height="405" transform="translate(1236.667 310)" fill="#fddf33"/>
    <rect id="Rectangle_88-2" data-name="Rectangle 88" width="17.974" height="18" transform="translate(1198 341)" fill="#fff"/>
    <rect id="Rectangle_89-2" data-name="Rectangle 89" width="17.974" height="18" transform="translate(1168.999 341)" fill="#fff"/>
    <rect id="Rectangle_90-2" data-name="Rectangle 90" width="17.974" height="18" transform="translate(1139.999 341)" fill="#fff"/>
    <rect id="Rectangle_91-2" data-name="Rectangle 91" width="18" height="18" transform="translate(1197.696 382)" fill="#fff"/>
    <rect id="Rectangle_92-2" data-name="Rectangle 92" width="18" height="18" transform="translate(1168.653 382)" fill="#fff"/>
    <rect id="Rectangle_93-2" data-name="Rectangle 93" width="18" height="18" transform="translate(1139.61 382)" fill="#fff"/>
    <rect id="Rectangle_94-2" data-name="Rectangle 94" width="17.974" height="18" transform="translate(1197 423)" fill="#fff"/>
    <rect id="Rectangle_95-2" data-name="Rectangle 95" width="17.974" height="18" transform="translate(1167.999 423)" fill="#fff"/>
    <rect id="Rectangle_96-2" data-name="Rectangle 96" width="17.974" height="18" transform="translate(1138.999 423)" fill="#fff"/>
    <rect id="Rectangle_97-2" data-name="Rectangle 97" width="18" height="18" transform="translate(1196.694 464)" fill="#fff"/>
    <rect id="Rectangle_98-2" data-name="Rectangle 98" width="18" height="18" transform="translate(1167.651 464)" fill="#fff"/>
    <rect id="Rectangle_99-2" data-name="Rectangle 99" width="18" height="18" transform="translate(1138.608 464)" fill="#fff"/>
    <rect id="Rectangle_100-2" data-name="Rectangle 100" width="17.974" height="18" transform="translate(1196 505)" fill="#fff"/>
    <rect id="Rectangle_101-2" data-name="Rectangle 101" width="17.974" height="18" transform="translate(1166.999 505)" fill="#fff"/>
    <rect id="Rectangle_102-2" data-name="Rectangle 102" width="17.974" height="18" transform="translate(1137.999 505)" fill="#fff"/>
    <rect id="Rectangle_103-2" data-name="Rectangle 103" width="18" height="18" transform="translate(1195.693 546)" fill="#fff"/>
    <rect id="Rectangle_104-2" data-name="Rectangle 104" width="18" height="18" transform="translate(1166.65 546)" fill="#fff"/>
    <rect id="Rectangle_105-2" data-name="Rectangle 105" width="18" height="18" transform="translate(1137.607 546)" fill="#fff"/>
    <rect id="Rectangle_106-2" data-name="Rectangle 106" width="17.974" height="18" transform="translate(1195 587)" fill="#fff"/>
    <rect id="Rectangle_107-2" data-name="Rectangle 107" width="17.974" height="18" transform="translate(1165.999 587)" fill="#fff"/>
    <rect id="Rectangle_108-2" data-name="Rectangle 108" width="17.974" height="18" transform="translate(1136.999 587)" fill="#fff"/>
    <rect id="Rectangle_109-2" data-name="Rectangle 109" width="18" height="18" transform="translate(1194.691 628)" fill="#fff"/>
    <rect id="Rectangle_110-2" data-name="Rectangle 110" width="18" height="18" transform="translate(1165.648 628)" fill="#fff"/>
    <rect id="Rectangle_111-2" data-name="Rectangle 111" width="18" height="34" transform="translate(1165.648 676)" fill="#fff"/>
    <rect id="Rectangle_112-2" data-name="Rectangle 112" width="18" height="18" transform="translate(1136.605 628)" fill="#fff"/>
    <rect id="Rectangle_113-2" data-name="Rectangle 113" width="8.976" height="34" transform="translate(1236.628 278)" fill="#fddf33"/>
    <path id="Path_183-2" data-name="Path 183" d="M295.727,285.319l-9.192-7.363c7.141-.789,10.075,3.111,11.276,6.2,5.579-2.32,11.652.72,11.652.72l-18.392,6.687A13.936,13.936,0,0,1,295.727,285.319Z" transform="translate(1208.554 100.016)" fill="#fddf33"/>
    <path id="Path_186-2" data-name="Path 186" d="M392.784,345.054l8.866-7.1c-6.888-.761-9.718,3-10.876,5.979-5.381-2.238-11.239.695-11.239.695l17.74,6.45a13.443,13.443,0,0,0-4.491-6.022Z" transform="translate(981.241 54.259)" fill="#fddf33"/>
    <path id="Path_189-2" data-name="Path 189" d="M306.807,674.984a13.883,13.883,0,0,1,6.961,1.871,14.958,14.958,0,0,1,24.993,11.129H292.878a13.979,13.979,0,0,1,13.929-13Z" transform="translate(1069.713 28.016)" fill="#fddf33"/>
    <path id="Path_190-2" data-name="Path 190" d="M543.807,674.984a13.883,13.883,0,0,1,6.961,1.871,14.958,14.958,0,0,1,24.992,11.129H529.878a13.978,13.978,0,0,1,13.929-13Z" transform="translate(595.696 28.016)" fill="#fddf33"/>
    <path id="Path_191-2" data-name="Path 191" d="M698.807,674.984a13.883,13.883,0,0,1,6.961,1.871,14.958,14.958,0,0,1,24.992,11.129H684.878a13.978,13.978,0,0,1,13.929-13Z" transform="translate(285.684 28.016)" fill="#fddf33"/>
    <rect id="Rectangle_138" data-name="Rectangle 138" width="888" height="2.241" transform="translate(745.244 714.792)" fill="#fddf33"/>
  </g>
</svg>
