<svg id="undraw_profile_6l1l" xmlns="http://www.w3.org/2000/svg" width="1094.768" height="795.322" viewBox="0 0 1094.768 795.322">
  <path id="Path_274" data-name="Path 274" d="M1096.819,610.979s-47.155,1.835,11.227,33.949,174.024-15.139,221.179,5.047,121.256-41.748,178.515-67.439-105.616-27.611-105.616-27.611-112.727,1.708-165.5,29.234S1096.819,610.979,1096.819,610.979Z" transform="translate(-425.173 138.85)" fill="#05f2f2"/>
  <line id="Line_1" data-name="Line 1" x1="196.059" transform="translate(835.941 741.253)" fill="none" stroke="#05dbf2" stroke-miterlimit="10" stroke-width="1"/>
  <rect id="Rectangle_62" data-name="Rectangle 62" width="870.457" height="499" rx="19.398" transform="translate(87.991 96.253)" fill="none" stroke="#05dbf2" stroke-miterlimit="10" stroke-width="1"/>
  <line id="Line_2" data-name="Line 2" x1="870.457" transform="translate(87.991 144.093)" fill="none" stroke="#05dbf2" stroke-miterlimit="10" stroke-width="1"/>
  <rect id="Rectangle_63" data-name="Rectangle 63" width="237.397" height="31" rx="7.093" transform="translate(162.554 256.253)" fill="#f280b6" opacity="0.3"/>
  <rect id="Rectangle_64" data-name="Rectangle 64" width="328.341" height="25" rx="7.093" transform="translate(155.312 342.253)" fill="#f280b6" opacity="0.3"/>
  <rect id="Rectangle_65" data-name="Rectangle 65" width="328.341" height="25" rx="7.093" transform="translate(155.312 410.253)" fill="#f280b6" opacity="0.3"/>
  <rect id="Rectangle_66" data-name="Rectangle 66" width="328.341" height="25" rx="7.093" transform="translate(155.312 478.253)" fill="#f280b6" opacity="0.3"/>
  <rect id="Rectangle_67" data-name="Rectangle 67" width="237.397" height="31" rx="7.093" transform="translate(152.992 246.253)" fill="none" stroke="#05dbf2" stroke-miterlimit="10" stroke-width="1"/>
  <rect id="Rectangle_68" data-name="Rectangle 68" width="328.341" height="25" rx="7.093" transform="translate(143.501 332.253)" fill="none" stroke="#05dbf2" stroke-miterlimit="10" stroke-width="1"/>
  <rect id="Rectangle_69" data-name="Rectangle 69" width="328.341" height="25" rx="7.093" transform="translate(143.501 400.253)" fill="none" stroke="#05dbf2" stroke-miterlimit="10" stroke-width="1"/>
  <rect id="Rectangle_70" data-name="Rectangle 70" width="328.341" height="25" rx="7.093" transform="translate(143.501 468.253)" fill="none" stroke="#05dbf2" stroke-miterlimit="10" stroke-width="1"/>
  <ellipse id="Ellipse_35" data-name="Ellipse 35" cx="17.716" cy="15" rx="17.716" ry="15" transform="translate(736.485 111.253)" fill="#f280b6" opacity="0.3"/>
  <ellipse id="Ellipse_36" data-name="Ellipse 36" cx="17.716" cy="15" rx="17.716" ry="15" transform="translate(694.713 111.253)" fill="#f280b6" opacity="0.3"/>
  <ellipse id="Ellipse_37" data-name="Ellipse 37" cx="17.716" cy="15" rx="17.716" ry="15" transform="translate(652.941 111.253)" fill="#f280b6" opacity="0.3"/>
  <ellipse id="Ellipse_38" data-name="Ellipse 38" cx="17.716" cy="15" rx="17.716" ry="15" transform="translate(730.518 105.253)" fill="none" stroke="#05dbf2" stroke-miterlimit="10" stroke-width="1"/>
  <ellipse id="Ellipse_39" data-name="Ellipse 39" cx="17.716" cy="15" rx="17.716" ry="15" transform="translate(688.746 105.253)" fill="none" stroke="#05dbf2" stroke-miterlimit="10" stroke-width="1"/>
  <ellipse id="Ellipse_40" data-name="Ellipse 40" cx="17.716" cy="15" rx="17.716" ry="15" transform="translate(646.973 105.253)" fill="none" stroke="#05dbf2" stroke-miterlimit="10" stroke-width="1"/>
  <path id="Path_156" data-name="Path 156" d="M499.512,653.379c2.966-11.568,3.753-27.369,2.755-38.36,0,0,15-55.786,26.8-60.991l0,0c.181.2,5.908,6.554,6.634,26.224.738,19.983,9.094,33.1,9.094,33.1s-2.7,24.908-1.158,40.028Z" transform="translate(75.091 -79.126)" fill="#f280b6"/>
  <path id="Path_157" data-name="Path 157" d="M404.077,298.379H676.264c15.507,0,28.077,10.643,28.077,23.772V629.607c0,13.129-12.57,23.772-28.076,23.772h-95.5c3.189-11.2,7.154-28.691,3.139-40.852l0-.008,0,.005c-.187-.568-.387-1.127-.61-1.67a54.236,54.236,0,0,1-2.707-24.354,43.039,43.039,0,0,1,0-21.232c2.95-11.656,5.015-23.105,5.015-23.105s1.626-15.4.206-24.844c-.031-.207-.068-.4-.1-.605l.782-.152s-4.18-16.028-5.655-26.228c-.348-2.408-.807-5.46-1.3-8.715a28.444,28.444,0,0,0,4.007-.86C596.816,476.8,601,441,601,441V429.656s4.425-17.381-11.063-25.083c-14.915-7.416-20.869-9.446-21.29-9.586-.114-.069-.225-.131-.341-.207a11.535,11.535,0,0,1-3.885-4.234,7.694,7.694,0,0,1-.015-.852c.252-4.067,3.6-7.765,6.768-10.992l8.118-8.257a7.993,7.993,0,0,0,2.091-2.865,5.636,5.636,0,0,0,.221-1.8q0-.337,0-.673-.066-3.078-.2-6.155c-.076-1.792-.609-4.054-2.682-4.422-1.078-.192-2.505.142-3.075-.656a1.35,1.35,0,0,1-.138-1.061c.007.027.009.054.018.081.007-.033.014-.067.021-.1a19.258,19.258,0,0,0,.768-4.386,5.019,5.019,0,0,0-.333-1.97c-1.2-2.975-5.336-4.2-8.99-4.757s-7.756-1.044-10.049-3.517a27.5,27.5,0,0,0-1.995-2.374,8.431,8.431,0,0,0-3.739-1.6,24.137,24.137,0,0,0-13.59,1.021c-1.767.683-3.543,1.6-5.482,1.5-2.014-.108-3.734-1.308-5.722-1.6-3.211-.472-6.282,1.566-7.864,3.978a8.672,8.672,0,0,0-1.456,5.023,6.335,6.335,0,0,0,2.084,4.741c1.382,1.241,3.444,2.094,4.018,3.73.234.666.18,1.383.386,2.055.026.084.068.162.1.244-.038.042-.079.081-.117.123a18.657,18.657,0,0,0-3.956,19.174c2.423,6.557,8.444,11.716,16.159,13.845.009.211.019.421.018.633a8.506,8.506,0,0,1-3.354,7.065l-21.906,7.606s-13.188-1.353-17.947,15.31a24.552,24.552,0,0,0-.815,8.457c.173,2.513-.23,6.936-3.611,12.66-5.409,9.159-4.179,30.182,6.884,32.264,10.479,1.972,14.555,1.143,14.957,1.05l.024.368c-.173,3.945-1.831,37.969-7.851,42.086-1.665,1.138-1.347,1.908.019,2.426l0,0s-.011.219-.037.612c-.181,2.488-1.11,11.965-5.141,17.357-4.672,6.245-4.182,42.257-4.182,42.257l-3.193,21.232s1.966,13.114,0,15.4c-1.117,1.3-2.469,21.4-3.431,38.57H404.076c-15.506,0-28.077-10.643-28.077-23.772V322.151c0-13.129,12.57-23.772,28.077-23.772Z" transform="translate(55.621 -79.126)" fill="#f280b6"/>
  <rect id="Rectangle_71" data-name="Rectangle 71" width="328.341" height="355" rx="23.772" transform="translate(454.019 192.253)" fill="none" stroke="#05dbf2" stroke-miterlimit="10" stroke-width="1"/>
  <path id="Path_158" data-name="Path 158" d="M187.619,400.757S198.631,398,200.993,401s-3.22,24.748-3.22,24.748L173.507,427l8.469-18.107Z" transform="translate(725.3 -79.126)" fill="#2f2e41"/>
  <path id="Path_159" data-name="Path 159" d="M109.267,579.347s-22.08,41.042-5.076,39.753,23.6-39.753,23.6-39.753Z" transform="translate(888.547 -79.126)" fill="#a0616a"/>
  <path id="Path_160" data-name="Path 160" d="M251.85,575.071s9.686,44.347-6.443,39.611-11.533-43.409-11.533-43.409Z" transform="translate(601.557 -79.126)" fill="#a0616a"/>
  <path id="Path_161" data-name="Path 161" d="M153.217,390.466s.254,20.629-9.137,21.7,5.33,12.033,5.33,12.033L166.161,427l24.111-1.5,10.659-11.6s-18.781-7.521-10.659-30.943Z" transform="translate(764.399 -79.126)" fill="#a0616a"/>
  <path id="Path_162" data-name="Path 162" d="M153.217,390.466s.254,20.629-9.137,21.7,5.33,12.033,5.33,12.033L166.161,427l24.111-1.5,10.659-11.6s-18.781-7.521-10.659-30.943Z" transform="translate(764.399 -79.126)" opacity="0.1"/>
  <path id="Path_163" data-name="Path 163" d="M131.761,564.95s-11.928,21.7-2.538,89.82c0,0-2.792,24.067-.508,28.579S149.78,749.1,149.78,749.1s24.11,4.513,27.41-9.025c0,0-3.3-19.339-3.045-22.348s-5.33-35.885-5.33-35.885l11.421-63.6,8.629,57.373s0,16.546,2.792,20.2,0,77.142,0,77.142-7.868,11.174,4.061,11.389,22.587-.215,23.6-7.306,1.523-14.182,4.061-18.48,5.837-53.505,5.076-70.7,16.75-105.507,11.167-114.747S131.761,564.95,131.761,564.95Z" transform="translate(742.711 -79.126)" fill="#2f2e41"/>
  <ellipse id="Ellipse_41" data-name="Ellipse 41" cx="30.455" cy="25.786" rx="30.455" ry="25.786" transform="translate(900.105 267.504)" fill="#a0616a"/>
  <path id="Path_164" data-name="Path 164" d="M222.9,414.318s-18.527,11.6-45.429,2.364c0,0-8.883-3.653-8.121-9.24s-18.527,44.91-18.527,44.91l-19.542,87.886,1.015,35.885s8.629-3.653,35.531,4.513,70.808-9.24,70.808-9.24l-1.523-92.184-1.523-53.72-4.061-11.819S229.5,410.45,222.9,414.318Z" transform="translate(738.116 -79.126)" fill="#f2f2f2"/>
  <path id="Path_165" data-name="Path 165" d="M266.542,399.893s-4.483-.617-8.8,5.185-14.466,9.455-14.466,9.455S218.66,415.822,215.107,427s-12.436,26.43-16.75,54.58-12.943,73.06-14.212,76.713,1.777,14.827-1.777,18.265,25.125,3.438,25.125,3.438,2.538-17.62,4.315-17.62,1.269,11.818-.508,20.414,12.943,0,12.943,0,11.421-39.323,22.334-74.779S263.835,453,261.8,445.046s-7.614-30.728-3.553-32.877S266.542,399.893,266.542,399.893Z" transform="translate(650.228 -79.126)" fill="#2f2e41"/>
  <path id="Path_166" data-name="Path 166" d="M98.161,399.874s6.631,3.055,23.381,13.155,28.171,17.835,28.171,17.835,6.6,4.3,10.659,29.868,13.2,91.755,9.645,100.135-4.822,13.323-3.553,18.265-26.648,4.727-27.156,3.653.761-20.629-.508-21.058-8.121,11.6-9.39,21.7-15.989,18.05-19.288,18.05-20.3-58.233-20.557-97.986,5.583-73.275,9.9-78S98.161,399.874,98.161,399.874Z" transform="translate(855.208 -79.126)" fill="#2f2e41"/>
  <path id="Path_167" data-name="Path 167" d="M196.189,751.037s-2.03-4.727-9.137-3.223-11.928-3.868-11.928-3.868-3.807-.43-1.269,3.653,4.568,6.876,4.568,6.876S163.2,783.914,173.094,791s21.319,2.793,21.319,2.793,11.167-6.661,10.659-24.282c0,0,.508-5.587,6.6-14.612s10.659-22.777,3.3-25.356-9.254-2.674-9.254-2.674,3.444,13.337-5.452,18Z" transform="translate(712.545 -79.126)" fill="#3f3d56"/>
  <path id="Path_168" data-name="Path 168" d="M173.346,784.344s6.091-9.67-4.061-10.744-21.065-1.719-20.557,2.793,1.777,11.389,1.777,11.389l-1.777,4.942s-.508,12.248-2.284,13.752-11.421,14.4,9.137,14.4,26.648-1.934,24.872-6.017-2.284-24.282-2.284-24.282Z" transform="translate(782.592 -79.126)" fill="#3f3d56"/>
  <path id="Path_169" data-name="Path 169" d="M165.556,351.788s-14.212,3.223-21.572,4.513-6.6-2.364-6.6-2.364-9.644,1.074-9.137.215-4.061-5.372,1.269-10.529,3.807-9.025,3.807-9.025h4.568l1.269-1.5h7.106s5.33-1.719,19.288,0,32.993,2.149,34.516,9.24,9.39,15.9,6.6,19.984-18.781,20.844-20.3,27.935-8.633,8.667-8.377,4.226,7.362-19.912,1.271-20.557S162.764,360.168,165.556,351.788Z" transform="translate(774.648 -79.126)" fill="#2f2e41"/>
  <path id="Path_170" data-name="Path 170" d="M1075.933,86.584c10.268.491,19.327,5.854,23.4,13.851,5.85,11.974-1.682,26.039-12.991,34.77s-25.834,13.722-39.033,20.282c-17.727,8.811-33.657,21.043-42.527,36.744s-9.813,35.15.613,50.15c9.677,13.922,27.274,22.255,44.057,29.94" transform="translate(-961.226 -79.126)" fill="none" stroke="#05dbf2" stroke-miterlimit="10" stroke-width="1"/>
  <ellipse id="Ellipse_42" data-name="Ellipse 42" cx="20.5" cy="8.5" rx="20.5" ry="8.5" transform="translate(79)" fill="#f280b6"/>
  <ellipse id="Ellipse_43" data-name="Ellipse 43" cx="20.5" cy="8.5" rx="20.5" ry="8.5" transform="translate(63 56)" fill="#f280b6"/>
  <ellipse id="Ellipse_44" data-name="Ellipse 44" cx="21" cy="8.5" rx="21" ry="8.5" transform="translate(100 65)" fill="#f280b6"/>
  <ellipse id="Ellipse_45" data-name="Ellipse 45" cx="21" cy="8.5" rx="21" ry="8.5" transform="translate(41 112)" fill="#f280b6"/>
  <ellipse id="Ellipse_46" data-name="Ellipse 46" cx="20.5" cy="8.5" rx="20.5" ry="8.5" transform="translate(0 112)" fill="#f280b6"/>
</svg>
